<?xml version="1.0" standalone="no"?>
<!DOCTYPE svg PUBLIC "-//W3C//DTD SVG 20010904//EN"
 "http://www.w3.org/TR/2001/REC-SVG-20010904/DTD/svg10.dtd">
<svg version="1.0" xmlns="http://www.w3.org/2000/svg"
 width="408.000000pt" height="408.000000pt" viewBox="0 0 408.000000 408.000000"
 preserveAspectRatio="xMidYMid meet">
<metadata>
Created by potrace 1.14, written by Peter Selinger 2001-2017
</metadata>
<g transform="translate(0.000000,408.000000) scale(0.100000,-0.100000)"
fill="#000000" stroke="none">
<path d="M3635 4052 c-16 -10 -84 -47 -150 -82 -66 -34 -151 -79 -190 -100
-253 -136 -364 -194 -785 -415 -288 -151 -410 -234 -551 -375 -164 -164 -267
-323 -329 -508 -31 -94 -38 -131 -46 -234 -3 -52 -1 -68 9 -68 13 0 215 100
347 172 76 41 209 112 365 193 203 107 328 173 480 255 28 15 111 60 185 100
360 193 444 248 544 354 63 67 149 181 174 231 69 140 75 308 16 454 -18 46
-26 49 -69 23z"/>
<path d="M996 3614 c-94 -121 -144 -254 -151 -404 -5 -131 9 -194 135 -590 38
-118 83 -262 101 -320 18 -58 34 -107 35 -108 7 -10 114 59 154 99 71 71 94
128 96 229 1 77 -4 106 -60 300 -98 340 -249 834 -257 844 -4 4 -28 -18 -53
-50z"/>
<path d="M3174 2869 c-65 -34 -150 -78 -189 -99 -38 -21 -105 -56 -147 -79
-43 -22 -111 -58 -150 -80 -40 -21 -147 -77 -238 -125 -91 -47 -172 -91 -180
-96 -8 -5 -40 -21 -70 -36 -365 -182 -567 -326 -725 -515 -130 -155 -239 -366
-270 -524 -13 -61 -18 -205 -8 -205 10 0 241 116 298 150 17 9 80 43 140 75
117 62 237 125 350 185 39 21 115 61 170 90 55 29 123 65 150 80 28 15 95 51
150 80 55 29 127 67 160 85 33 18 105 56 160 85 55 29 127 69 160 88 189 109
315 258 390 462 47 127 37 339 -20 422 -11 16 -22 13 -131 -43z"/>
<path d="M768 2783 c-56 -62 -109 -157 -145 -264 -14 -42 -18 -83 -17 -184 1
-124 3 -137 48 -290 83 -285 190 -621 213 -671 l14 -32 37 18 c50 25 112 79
146 129 51 73 74 210 53 306 -9 38 -75 260 -127 425 -28 91 -62 199 -75 240
-79 255 -111 350 -116 350 -3 0 -17 -12 -31 -27z"/>
<path d="M497 1944 c-96 -97 -150 -244 -150 -409 1 -88 6 -120 46 -265 47
-167 213 -705 223 -721 3 -5 24 1 47 12 95 49 160 120 191 213 20 57 22 175 6
237 -7 24 -14 51 -16 59 -5 23 -39 134 -79 260 -41 128 -127 401 -176 558 -17
56 -35 102 -38 102 -4 0 -28 -21 -54 -46z"/>
<path d="M2855 1797 c-22 -13 -94 -52 -160 -86 -66 -35 -183 -98 -260 -139
-77 -41 -178 -94 -225 -119 -47 -25 -123 -66 -170 -92 -86 -46 -156 -84 -220
-119 -104 -55 -221 -119 -263 -144 -26 -15 -50 -28 -52 -28 -3 0 -35 -19 -72
-41 -221 -135 -383 -314 -504 -554 -78 -153 -123 -319 -117 -424 l3 -52 125
64 c69 35 154 80 190 99 36 19 133 70 215 113 83 43 155 81 160 85 6 4 60 33
120 65 61 32 142 75 180 95 39 21 111 59 160 85 217 115 288 153 423 227 78
43 145 78 148 78 3 0 38 22 77 50 239 165 373 396 366 630 -1 41 -6 91 -12
110 -15 57 -47 120 -60 120 -6 0 -30 -11 -52 -23z"/>
</g>
</svg>
