<?xml version="1.0" encoding="UTF-8"?>
<svg id="_レイヤー_2" data-name="レイヤー 2" xmlns="http://www.w3.org/2000/svg" viewBox="0 0 1235.26 24.53">
  <defs>
    <style>
      .cls-1 {
        fill: #2e0075;
      }
    </style>
  </defs>
  <g id="_レイヤー_2-2" data-name="レイヤー 2">
    <path class="cls-1" d="m1234.82,1.89l-12.87,17.85c-.1.14-.31.13-.4-.01l-8.3-12.86c-.12-.19-.42-.12-.44.1l-1.18,10.97c-.03.23-.34.3-.45.09L1201.19.12c-.1-.18-.37-.16-.44.04l-6.24,19.15c-.07.22-.39.22-.46,0l-4.48-13.83c-.06-.2-.34-.23-.44-.04l-7.57,13.46c-.07.12-.23.16-.35.08l-9.66-6.85c-.2-.14-.46.08-.36.3l3.1,6.55c.11.24-.18.46-.38.29l-12.05-10.44c-.15-.13-.39-.03-.4.17l-.39,9.83c0,.23-.31.32-.44.12l-4.71-7.07c-.09-.14-.3-.14-.4,0l-5.38,7.51,3.59-17.32c.05-.25-.28-.4-.43-.19l-12.87,17.85c-.1.14-.31.13-.4-.01l-8.3-12.86c-.12-.19-.42-.12-.44.1l-1.18,10.97c-.03.23-.34.3-.45.09L1119.67.12c-.1-.18-.37-.16-.44.04l-6.24,19.15c-.07.22-.39.22-.46,0l-4.48-13.83c-.06-.2-.34-.23-.44-.04l-7.57,13.46c-.07.12-.23.16-.35.08l-9.66-6.85c-.2-.14-.46.08-.36.3l3.1,6.55c.11.24-.18.46-.38.29l-12.05-10.44c-.15-.13-.39-.03-.4.17l-.39,9.83c0,.23-.31.32-.44.12l-4.71-7.07c-.09-.14-.3-.14-.4,0l-4.54,6.33-4.54-6.33c-.1-.14-.3-.13-.4,0l-4.71,7.07c-.13.19-.43.11-.44-.12l-.39-9.83c0-.2-.25-.3-.4-.17l-12.05,10.44c-.2.17-.49-.05-.38-.29l3.1-6.55c.11-.22-.15-.44-.36-.3l-9.66,6.85c-.12.08-.28.05-.35-.08l-7.57-13.46c-.1-.18-.37-.16-.44.04l-4.48,13.83c-.07.22-.39.22-.46,0l-6.24-19.15c-.07-.2-.34-.23-.44-.04l-10,17.91c-.11.21-.43.14-.45-.09l-1.18-10.97c-.02-.23-.32-.3-.44-.1l-8.3,12.86c-.09.14-.3.15-.4.01l-12.87-17.85c-.15-.21-.48-.06-.43.19l3.35,16.16-4.55-6.35c-.1-.14-.3-.13-.4,0l-4.71,7.07c-.13.19-.43.11-.44-.12l-.39-9.83c0-.2-.25-.3-.4-.17l-12.05,10.44c-.2.17-.49-.05-.38-.29l3.1-6.55c.11-.22-.15-.44-.36-.3l-9.66,6.85c-.12.08-.28.05-.35-.08l-7.57-13.46c-.1-.18-.37-.16-.44.04l-4.48,13.83c-.07.22-.39.22-.46,0l-6.24-19.15c-.07-.2-.34-.23-.44-.04l-10,17.91c-.11.21-.42.14-.45-.09l-1.18-10.97c-.02-.23-.32-.3-.44-.1l-8.3,12.86c-.09.14-.3.15-.4.01l-12.87-17.85c-.15-.21-.48-.06-.43.19l2.56,12.38-3.01,4.51c-.13.19-.43.11-.44-.12l-.39-9.83c0-.2-.25-.3-.4-.17l-12.05,10.44c-.2.17-.49-.05-.38-.29l3.1-6.55c.11-.22-.15-.44-.36-.3l-9.66,6.85c-.12.08-.28.05-.35-.08l-7.57-13.46c-.1-.18-.37-.16-.44.04l-4.48,13.83c-.07.22-.39.22-.46,0l-6.24-19.15c-.07-.2-.34-.23-.44-.04l-10,17.91c-.11.21-.43.14-.45-.09l-1.18-10.97c-.02-.23-.32-.3-.44-.1l-8.3,12.86c-.09.14-.3.15-.4.01l-1.11-1.54,3.34-16.12c.05-.25-.28-.4-.43-.19l-7.33,10.17-7.33-10.17c-.15-.21-.48-.06-.43.19l3.34,16.12-1.11,1.54c-.1.14-.31.13-.4-.01l-8.3-12.86c-.12-.19-.42-.12-.44.1l-1.18,10.97c-.02.23-.34.3-.45.09L810.69.12c-.1-.18-.37-.16-.44.04l-6.24,19.15c-.07.22-.39.22-.46,0l-4.48-13.83c-.06-.2-.34-.23-.44-.04l-7.57,13.46c-.07.12-.23.16-.35.08l-9.66-6.85c-.2-.14-.46.08-.36.3l3.1,6.55c.11.24-.18.46-.38.29l-12.05-10.44c-.15-.13-.39-.03-.4.17l-.39,9.83c0,.23-.31.32-.44.12l-4.71-7.07c-.09-.14-.3-.14-.4,0l-5.38,7.51,3.59-17.32c.05-.25-.28-.4-.43-.19l-12.87,17.85c-.1.14-.31.13-.4-.01l-8.3-12.86c-.12-.19-.42-.12-.44.1l-1.18,10.97c-.02.23-.34.3-.45.09L729.17.12c-.1-.18-.37-.16-.44.04l-6.24,19.15c-.07.22-.39.22-.46,0l-4.48-13.83c-.06-.2-.34-.23-.44-.04l-7.57,13.46c-.07.12-.23.16-.35.08l-8.81-6.24,2.21-10.66c.05-.25-.28-.4-.43-.19l-7.81,10.84-4.49-3.89c-.15-.13-.39-.03-.4.17l-.39,9.83c0,.23-.31.32-.44.12l-4.71-7.07s-.07-.04-.11-.06l-3.21-4.98c-.12-.19-.42-.12-.44.1l-1.18,10.97c-.02.23-.34.3-.45.09L668.53.12c-.1-.18-.37-.16-.44.04l-6.24,19.15c-.07.22-.39.22-.46,0l-4.48-13.83c-.06-.2-.34-.23-.44-.04l-7.57,13.46c-.07.12-.23.16-.35.08l-9.66-6.85c-.2-.14-.46.08-.36.3l3.1,6.55c.11.24-.18.46-.38.29l-12.05-10.44c-.15-.13-.39-.03-.4.17l-.39,9.83c0,.23-.31.32-.44.12l-4.71-7.07c-.09-.14-.3-.14-.4,0l-5.23,7.3-5.24-7.3c-.1-.14-.3-.13-.4,0l-4.71,7.07c-.13.19-.43.11-.44-.12l-.39-9.83c0-.2-.25-.3-.4-.17l-12.05,10.44c-.2.17-.49-.05-.38-.29l3.1-6.55c.11-.22-.15-.44-.36-.3l-9.66,6.85c-.12.08-.28.05-.35-.08l-7.57-13.46c-.1-.18-.37-.16-.44.04l-4.48,13.83c-.07.22-.39.22-.46,0l-6.24-19.15c-.07-.2-.34-.23-.44-.04l-10,17.91c-.11.21-.43.14-.45-.09l-1.18-10.97c-.02-.23-.32-.3-.44-.1l-3.21,4.98s-.08.02-.11.06l-4.71,7.07c-.13.19-.43.11-.44-.12l-.39-9.83c0-.2-.25-.3-.4-.17l-4.49,3.89-7.81-10.84c-.15-.21-.48-.06-.43.19l2.21,10.66-8.81,6.24c-.12.08-.28.05-.35-.08l-7.57-13.46c-.1-.18-.37-.16-.44.04l-4.48,13.83c-.07.22-.39.22-.46,0L506.53.17c-.07-.2-.34-.23-.44-.04l-10,17.91c-.11.21-.43.14-.45-.09l-1.18-10.97c-.02-.23-.32-.3-.44-.1l-8.3,12.86c-.09.14-.3.15-.4.01l-12.87-17.85c-.15-.21-.48-.06-.43.19l3.59,17.32-5.38-7.51c-.1-.14-.3-.13-.4,0l-4.71,7.07c-.13.19-.43.11-.44-.12l-.39-9.83c0-.2-.25-.3-.4-.17l-12.05,10.44c-.2.17-.49-.05-.38-.29l3.1-6.55c.11-.22-.15-.44-.36-.3l-9.66,6.85c-.12.08-.28.05-.35-.08l-7.57-13.46c-.1-.18-.37-.16-.44.04l-4.48,13.83c-.07.22-.39.22-.46,0L425.01.17c-.07-.2-.34-.23-.44-.04l-10,17.91c-.11.21-.43.14-.45-.09l-1.18-10.97c-.02-.23-.32-.3-.44-.1l-8.3,12.86c-.09.14-.3.15-.4.01l-1.11-1.54,3.34-16.12c.05-.25-.28-.4-.43-.19l-7.33,10.17-7.33-10.17c-.15-.21-.48-.06-.43.19l3.34,16.12-1.11,1.54c-.1.14-.31.13-.4-.01l-8.3-12.86c-.12-.19-.42-.12-.44.1l-1.18,10.97c-.03.23-.34.3-.45.09L371.98.12c-.1-.18-.37-.16-.44.04l-6.24,19.15c-.07.22-.39.22-.46,0l-4.48-13.83c-.06-.2-.34-.23-.44-.04l-7.57,13.46c-.07.12-.23.16-.35.08l-9.66-6.85c-.2-.14-.46.08-.36.3l3.1,6.55c.11.24-.18.46-.38.29l-12.05-10.44c-.15-.13-.39-.03-.4.17l-.39,9.83c0,.23-.31.32-.44.12l-3.01-4.51,2.56-12.38c.05-.25-.28-.4-.43-.19l-12.87,17.85c-.1.14-.31.13-.4-.01l-8.3-12.86c-.12-.19-.42-.12-.44.1l-1.18,10.97c-.02.23-.34.3-.45.09L296.92.12c-.1-.18-.37-.16-.44.04l-6.24,19.15c-.07.22-.39.22-.46,0l-4.48-13.83c-.06-.2-.34-.23-.44-.04l-7.57,13.46c-.07.12-.23.16-.35.08l-9.66-6.85c-.2-.14-.46.08-.36.3l3.1,6.55c.11.24-.18.46-.38.29l-12.05-10.44c-.15-.13-.39-.03-.4.17l-.39,9.83c0,.23-.31.32-.44.12l-4.71-7.07c-.09-.14-.3-.14-.4,0l-4.55,6.35,3.35-16.16c.05-.25-.28-.4-.43-.19l-12.87,17.85c-.1.14-.31.13-.4-.01l-8.3-12.86c-.12-.19-.42-.12-.44.1l-1.18,10.97c-.02.23-.34.3-.45.09L215.99.12c-.1-.18-.37-.16-.44.04l-6.24,19.15c-.07.22-.39.22-.46,0l-4.48-13.83c-.06-.2-.34-.23-.44-.04l-7.57,13.46c-.07.12-.23.16-.35.08l-9.66-6.85c-.2-.14-.46.08-.36.3l3.1,6.55c.11.24-.18.46-.38.29l-12.05-10.44c-.15-.13-.39-.03-.4.17l-.39,9.83c0,.23-.31.32-.44.12l-4.71-7.07c-.09-.14-.3-.14-.4,0l-4.54,6.33-4.54-6.33c-.1-.14-.3-.13-.4,0l-4.71,7.07c-.13.19-.43.11-.44-.12l-.39-9.83c0-.2-.25-.3-.4-.17l-12.05,10.44c-.2.17-.49-.05-.38-.29l3.1-6.55c.11-.22-.15-.44-.36-.3l-9.66,6.85c-.12.08-.28.05-.35-.08l-7.57-13.46c-.1-.18-.37-.16-.44.04l-4.48,13.83c-.07.22-.39.22-.46,0L116.02.17c-.06-.2-.34-.23-.44-.04l-10,17.91c-.11.21-.42.14-.45-.09l-1.18-10.97c-.02-.23-.32-.3-.44-.1l-8.3,12.86c-.09.14-.3.15-.4.01L81.96,1.89c-.15-.21-.48-.06-.43.19l3.59,17.32-5.38-7.51c-.1-.14-.3-.13-.4,0l-4.71,7.07c-.13.19-.43.11-.44-.12l-.39-9.83c0-.2-.25-.3-.4-.17l-12.05,10.44c-.2.17-.49-.05-.38-.29l3.1-6.55c.11-.22-.15-.44-.36-.3l-9.66,6.85c-.12.08-.28.05-.35-.08l-7.57-13.46c-.1-.18-.37-.16-.44.04l-4.48,13.83c-.07.22-.39.22-.46,0L34.5.17c-.07-.2-.34-.23-.44-.04l-10,17.91c-.11.21-.43.14-.45-.09l-1.18-10.97c-.02-.23-.32-.3-.44-.1l-8.3,12.86c-.09.14-.3.15-.4.01L.44,1.89c-.15-.21-.48-.06-.43.19l4.65,22.44h84.14s0,0,0,0h72.48s0,0,0,0h4.52s4.52,0,4.52,0h0s71.89,0,71.89,0h0s75.06,0,75.06,0h0s81.02,0,81.02,0h81.02s0,0,0,0h81.53s0,0,0,0h52.99s0,0,0,0h3.83s3.83,0,3.83,0h0s52.99,0,52.99,0h0s81.53,0,81.53,0h0s81.02,0,81.02,0h81.02s0,0,0,0h75.06s0,0,0,0h71.89s0,0,0,0h4.52s4.52,0,4.52,0h0s72.48,0,72.48,0h0s84.14,0,84.14,0l4.65-22.44c.05-.25-.28-.4-.43-.19Zm-701.46,17.38c-.2.17-.49-.05-.38-.29l2.22-4.68.59,2.86-2.43,2.11Zm168.53,0l-2.43-2.11.59-2.86,2.22,4.68c.11.24-.18.46-.38.29Z"/>
  </g>
</svg>