<?xml version="1.0" encoding="UTF-8"?>
<svg id="_レイヤー_2" data-name="レイヤー 2" xmlns="http://www.w3.org/2000/svg" viewBox="0 0 569.2 702.39">
  <defs>
    <style>
      .cls-1 {
        fill: #fff;
      }
    </style>
  </defs>
  <g id="_レイヤー_1-2" data-name="レイヤー 1">
    <g>
      <g>
        <path class="cls-1" d="m501.37,173.11c13.55,26.63,10.82,52.34-1.08,77.65-12.67,26.94-33.27,46.71-59.27,60.6-82.19,43.89-164.54,87.47-246.86,131.12-2.67,1.42-5.64,2.28-10.18,4.07-1.93-32.32,9.31-58.92,24.4-84.14,25.14-42.01,63.02-69.36,105.72-91.49,60.05-31.13,119.59-63.23,179.38-94.86,2.16-1.14,4.61-1.74,7.9-2.94Z"/>
        <path class="cls-1" d="m443,339.05c18.3,26.44,12.88,73.63-19.13,107.77-10.33,11.02-22.43,21.39-35.62,28.54-81.86,44.33-164.26,87.67-246.51,131.28-3.87,2.05-8.03,3.55-15.35,6.74-.57-25.29,6.28-46.57,15.98-66.86,18.37-38.43,45.86-69.63,82.9-90.25,71.82-39.98,144.71-78.04,217.73-117.21Z"/>
        <path class="cls-1" d="m559.53,0c15,32.7,10.91,62.3-7.42,87.65-13.46,18.62-30.84,36.94-50.61,48.02-79.53,44.6-160.66,86.35-241.25,129.06-4.95,2.62-10.34,4.42-17.36,7.38-.42-34.2,11.32-62.57,28.77-88.88,22.74-34.26,53.53-59.46,89.83-78.49C427,70.4,492.28,35.6,559.53,0Z"/>
        <path class="cls-1" d="m162.19,60.17c16.79,56.4,33.46,107.89,47.14,160.16,7.08,27.08-9.04,52.09-36.63,63.21-3.45-10.84-6.9-21.55-10.26-32.29-8.76-28-18.08-55.84-26.06-84.06-10.77-38.11-4.66-72.87,25.81-107.01Z"/>
        <path class="cls-1" d="m124.89,189.33c6.44,20.4,11.81,37.2,17.03,54.03,9.8,31.62,20.16,63.08,29.09,94.94,9.07,32.35-3.88,59.95-33.57,72.91-1.32-2.46-3.15-4.89-4-7.62-11.54-37.08-23.89-73.94-34.11-111.38-9.99-36.58-4.12-70.53,25.56-102.9Z"/>
        <path class="cls-1" d="m97.16,532.14c-13.12-43.4-27.37-85.1-38.08-127.69-8.9-35.39,4.24-72.55,28.74-91.08,10.8,34.48,21.44,68.36,32.02,102.26,4.57,14.63,9.59,29.14,13.44,43.96,8.56,33.01-4.99,61.48-36.12,72.55Z"/>
      </g>
      <g>
        <path class="cls-1" d="m0,663.08h9.48l8.99,15.18,8.94-15.18h9.42l-14.27,23.69v14.75h-8.45v-14.97l-14.11-23.48Z"/>
        <path class="cls-1" d="m39.68,674.47c.86-2.46,2.1-4.61,3.72-6.44,1.61-1.83,3.6-3.27,5.95-4.31s5-1.56,7.94-1.56,5.64.52,7.97,1.56c2.33,1.04,4.31,2.48,5.92,4.31,1.62,1.83,2.85,3.98,3.72,6.44.86,2.46,1.29,5.12,1.29,8s-.43,5.41-1.29,7.84c-.86,2.42-2.1,4.53-3.72,6.33-1.61,1.79-3.59,3.2-5.92,4.23-2.33,1.02-4.99,1.53-7.97,1.53s-5.59-.51-7.94-1.53-4.33-2.43-5.95-4.23c-1.62-1.79-2.85-3.9-3.72-6.33-.86-2.42-1.29-5.03-1.29-7.84s.43-5.54,1.29-8Zm7.73,12.71c.38,1.53.98,2.9,1.8,4.12s1.9,2.2,3.23,2.93,2.94,1.1,4.85,1.1,3.52-.37,4.85-1.1c1.33-.74,2.4-1.71,3.23-2.93.82-1.22,1.43-2.59,1.8-4.12.38-1.52.57-3.1.57-4.71s-.19-3.32-.57-4.9c-.38-1.58-.98-2.99-1.8-4.23-.83-1.24-1.9-2.22-3.23-2.96-1.33-.74-2.94-1.1-4.85-1.1s-3.52.37-4.85,1.1-2.4,1.72-3.23,2.96c-.83,1.24-1.43,2.65-1.8,4.23s-.57,3.21-.57,4.9.19,3.19.57,4.71Z"/>
        <path class="cls-1" d="m88.41,692.05c.47.9,1.08,1.62,1.86,2.18s1.68.97,2.72,1.24c1.04.27,2.12.41,3.23.41.75,0,1.56-.06,2.42-.19.86-.13,1.67-.37,2.42-.73.75-.36,1.38-.85,1.89-1.48.5-.63.75-1.43.75-2.4,0-1.04-.33-1.88-1-2.53-.66-.65-1.53-1.18-2.61-1.61s-2.3-.81-3.66-1.13c-1.36-.32-2.75-.68-4.15-1.08-1.44-.36-2.84-.8-4.2-1.32-1.37-.52-2.58-1.19-3.66-2.02-1.08-.83-1.95-1.86-2.61-3.1-.66-1.24-1-2.74-1-4.5,0-1.97.42-3.69,1.27-5.14.84-1.45,1.95-2.66,3.31-3.63,1.36-.97,2.91-1.68,4.63-2.15,1.72-.46,3.45-.7,5.17-.7,2.01,0,3.94.22,5.79.67,1.85.45,3.49,1.18,4.93,2.18,1.44,1.01,2.58,2.29,3.42,3.85.84,1.56,1.27,3.46,1.27,5.68h-8.18c-.07-1.15-.31-2.1-.73-2.85-.41-.75-.96-1.35-1.64-1.78-.68-.43-1.46-.74-2.34-.92s-1.84-.27-2.88-.27c-.68,0-1.37.07-2.05.22-.68.14-1.3.39-1.86.75s-1.01.81-1.37,1.35c-.36.54-.54,1.22-.54,2.05,0,.75.14,1.37.43,1.83.29.47.85.9,1.7,1.29.84.4,2.01.79,3.5,1.19,1.49.39,3.44.9,5.84,1.51.72.14,1.71.4,2.99.78,1.27.38,2.54.98,3.8,1.81s2.34,1.93,3.26,3.31c.91,1.38,1.37,3.15,1.37,5.3,0,1.76-.34,3.39-1.02,4.9-.68,1.51-1.7,2.81-3.04,3.9s-3.01,1.95-5.01,2.56c-1.99.61-4.3.92-6.92.92-2.12,0-4.17-.26-6.17-.78s-3.75-1.34-5.28-2.45c-1.53-1.11-2.74-2.53-3.63-4.25-.9-1.72-1.33-3.77-1.29-6.14h8.18c0,1.29.23,2.39.7,3.29Z"/>
        <path class="cls-1" d="m127.99,663.08v14.75h15.56v-14.75h8.45v38.45h-8.45v-16.58h-15.56v16.58h-8.45v-38.45h8.45Z"/>
        <path class="cls-1" d="m183.77,663.08v15.94l15.02-15.94h10.55l-15.02,15.18,16.48,23.26h-10.61l-11.58-17.28-4.85,4.9v12.38h-8.45v-38.45h8.45Z"/>
        <path class="cls-1" d="m232.88,663.08l14.38,38.45h-8.78l-2.91-8.56h-14.38l-3.02,8.56h-8.51l14.54-38.45h8.67Zm.48,23.58l-4.85-14.11h-.11l-5.01,14.11h9.96Z"/>
        <path class="cls-1" d="m277.04,701.53l-6.51-26.17h-.11l-6.41,26.17h-8.56l-10.18-38.45h8.45l6.08,26.17h.11l6.68-26.17h7.92l6.57,26.49h.11l6.3-26.49h8.29l-10.34,38.45h-8.4Z"/>
        <path class="cls-1" d="m318.82,663.08l14.38,38.45h-8.78l-2.91-8.56h-14.38l-3.02,8.56h-8.51l14.54-38.45h8.67Zm.48,23.58l-4.85-14.11h-.11l-5.01,14.11h9.96Z"/>
        <path class="cls-1" d="m379.94,673.34c-.5-.81-1.13-1.52-1.88-2.13-.75-.61-1.61-1.09-2.56-1.43-.95-.34-1.95-.51-2.99-.51-1.9,0-3.52.37-4.85,1.1-1.33.74-2.4,1.72-3.23,2.96-.83,1.24-1.43,2.65-1.8,4.23-.38,1.58-.57,3.21-.57,4.9s.19,3.19.57,4.71c.38,1.53.98,2.9,1.8,4.12s1.9,2.2,3.23,2.93,2.94,1.1,4.85,1.1c2.58,0,4.6-.79,6.06-2.37,1.45-1.58,2.34-3.66,2.67-6.24h8.18c-.22,2.4-.77,4.58-1.67,6.51-.9,1.94-2.08,3.59-3.55,4.95-1.47,1.37-3.2,2.41-5.17,3.12-1.98.72-4.15,1.08-6.52,1.08-2.94,0-5.59-.51-7.94-1.53s-4.33-2.43-5.95-4.23c-1.62-1.79-2.85-3.9-3.72-6.33-.86-2.42-1.29-5.03-1.29-7.84s.43-5.54,1.29-8c.86-2.46,2.1-4.61,3.72-6.44,1.61-1.83,3.6-3.27,5.95-4.31s5-1.56,7.94-1.56c2.12,0,4.12.3,6,.92,1.88.61,3.57,1.5,5.06,2.66,1.49,1.17,2.72,2.61,3.69,4.34.97,1.72,1.58,3.7,1.83,5.92h-8.18c-.14-.97-.47-1.86-.97-2.67Z"/>
        <path class="cls-1" d="m408.42,670.19v-7.11h31.5v7.11h-11.52v31.34h-8.45v-31.34h-11.52Z"/>
        <path class="cls-1" d="m442.83,663.08h9.48l8.99,15.18,8.94-15.18h9.42l-14.27,23.69v14.75h-8.45v-14.97l-14.11-23.48Z"/>
        <path class="cls-1" d="m530.17,663.08v7.11h-18.58v8.88h16.1v6.57h-16.1v15.88h-8.45v-38.45h27.03Z"/>
        <path class="cls-1" d="m559.73,673.34c-.5-.81-1.13-1.52-1.88-2.13-.75-.61-1.61-1.09-2.56-1.43-.95-.34-1.95-.51-2.99-.51-1.9,0-3.52.37-4.85,1.1s-2.4,1.72-3.23,2.96c-.83,1.24-1.43,2.65-1.8,4.23-.38,1.58-.57,3.21-.57,4.9s.19,3.19.57,4.71c.38,1.53.98,2.9,1.8,4.12s1.9,2.2,3.23,2.93,2.94,1.1,4.85,1.1c2.58,0,4.6-.79,6.06-2.37,1.45-1.58,2.34-3.66,2.67-6.24h8.18c-.22,2.4-.77,4.58-1.67,6.51-.9,1.94-2.08,3.59-3.55,4.95-1.47,1.37-3.2,2.41-5.17,3.12-1.98.72-4.15,1.08-6.52,1.08-2.94,0-5.59-.51-7.94-1.53s-4.33-2.43-5.95-4.23c-1.62-1.79-2.85-3.9-3.72-6.33-.86-2.42-1.29-5.03-1.29-7.84s.43-5.54,1.29-8c.86-2.46,2.1-4.61,3.72-6.44,1.61-1.83,3.6-3.27,5.95-4.31s5-1.56,7.94-1.56c2.12,0,4.12.3,6,.92,1.88.61,3.57,1.5,5.06,2.66,1.49,1.17,2.72,2.61,3.69,4.34.97,1.72,1.58,3.7,1.83,5.92h-8.18c-.14-.97-.47-1.86-.97-2.67Z"/>
        <g>
          <polygon class="cls-1" points="167.89 666.42 167.89 663.08 159.44 663.08 159.44 671.74 167.89 666.42"/>
          <polygon class="cls-1" points="159.44 682.13 159.44 681.78 159.44 701.53 167.89 701.53 167.89 675.39 159.44 682.13"/>
        </g>
        <g>
          <polygon class="cls-1" points="402.87 666.42 402.87 666.84 402.87 663.08 394.42 663.08 394.42 671.74 402.87 666.42"/>
          <polygon class="cls-1" points="394.42 682.13 394.42 681.89 394.42 701.53 402.87 701.53 402.87 675.39 394.42 682.13"/>
        </g>
      </g>
    </g>
  </g>
</svg>