<?xml version="1.0" encoding="UTF-8"?>
<svg id="_レイヤー_2" data-name="レイヤー 2" xmlns="http://www.w3.org/2000/svg" viewBox="0 0 71.39 71.38">
  <defs>
    <style>
      .cls-1 {
        fill: #fff;
      }

      .cls-1, .cls-2 {
        stroke: #2e0075;
        stroke-miterlimit: 10;
        stroke-width: .5px;
      }

      .cls-2 {
        fill: #2e0075;
      }
    </style>
  </defs>
  <g id="_レイヤー_2-2" data-name="レイヤー 2">
    <g>
      <polygon class="cls-2" points="41.48 8.6 35.35 19.21 41.48 29.83 53.73 29.83 59.86 19.21 53.73 8.6 41.48 8.6"/>
      <path class="cls-2" d="m61.59,18.21h4.93c-2.61-4.59-6.21-8.54-10.51-11.56l-.55.95,6.13,10.61Z"/>
      <path class="cls-1" d="m55.47,30.83l6.13,10.61h9.07c.31-1.87.47-3.79.47-5.75,0-5.55-1.28-10.8-3.55-15.48h-5.99l-6.13,10.61Z"/>
      <path class="cls-2" d="m70.28,43.44h-8.68l-6.13,10.61,4.37,7.58c5.14-4.79,8.85-11.09,10.44-18.19Z"/>
      <path class="cls-1" d="m58.31,62.98l-4.58-7.93h-12.25l-6.13,10.61,3.09,5.35c7.52-.58,14.39-3.5,19.87-8.04Z"/>
      <path class="cls-2" d="m.86,29.15l.39.68h12.25l6.13-10.61-6.13-10.61h-.66C6.73,13.76,2.39,20.96.86,29.15Z"/>
      <path class="cls-1" d="m37.85.32l3.63,6.28h12.25l.61-1.05C49.5,2.55,43.88.68,37.85.32Z"/>
      <path class="cls-2" d="m21.37,18.21h12.25l6.13-10.61L35.5.25c-7.19.04-13.87,2.22-19.45,5.93l-.82,1.42,6.13,10.61Z"/>
      <polygon class="cls-1" points="33.62 20.21 21.37 20.21 15.24 30.83 21.37 41.44 33.62 41.44 39.75 30.83 33.62 20.21"/>
      <polygon class="cls-2" points="53.73 53.05 59.86 42.44 53.73 31.83 41.48 31.83 35.35 42.44 41.48 53.05 53.73 53.05"/>
      <polygon class="cls-2" points="33.62 43.44 21.37 43.44 15.24 54.05 21.37 64.66 33.62 64.66 39.75 54.05 33.62 43.44"/>
      <path class="cls-2" d="m13.51,53.05l6.13-10.61-6.13-10.61H1.25l-.92,1.6c-.05.75-.08,1.5-.08,2.26,0,6.31,1.66,12.23,4.55,17.36h8.71Z"/>
      <path class="cls-2" d="m36.19,71.12l-2.57-4.46h-12.25l-.66,1.15c4.55,2.13,9.63,3.32,14.99,3.32.17,0,.33-.01.5-.01Z"/>
      <path class="cls-1" d="m13.51,55.05h-7.5c3.24,4.95,7.67,9.05,12.9,11.86l.72-1.25-6.13-10.61Z"/>
    </g>
  </g>
</svg>