<?xml version="1.0" encoding="UTF-8"?>
<svg id="_レイヤー_2" data-name="レイヤー 2" xmlns="http://www.w3.org/2000/svg" viewBox="0 0 489.61 489.61">
  <defs>
    <style>
      .cls-1 {
        fill: #818181;
      }

      .cls-2 {
        fill: #666;
      }

      .cls-3 {
        fill: #ccc;
      }
    </style>
  </defs>
  <g id="_レイヤー_1-2" data-name="レイヤー 1">
    <rect class="cls-3" width="489.61" height="489.61"/>
    <g>
      <g>
        <path class="cls-2" d="m325.7,178.35c5.06,9.94,4.04,19.53-.4,28.98-4.73,10.05-12.41,17.43-22.12,22.61-30.67,16.38-61.4,32.64-92.12,48.93-1,.53-2.1.85-3.8,1.52-.72-12.06,3.47-21.99,9.1-31.4,9.38-15.68,23.52-25.88,39.45-34.14,22.41-11.62,44.63-23.6,66.94-35.4.81-.43,1.72-.65,2.95-1.1Z"/>
        <path class="cls-2" d="m303.92,240.27c6.83,9.87,4.81,27.48-7.14,40.22-3.85,4.11-8.37,7.98-13.29,10.65-30.55,16.54-61.3,32.72-91.99,48.99-1.44.76-3,1.32-5.73,2.51-.21-9.44,2.34-17.38,5.96-24.95,6.85-14.34,17.11-25.98,30.94-33.68,26.8-14.92,54-29.12,81.25-43.74Z"/>
        <path class="cls-1" d="m347.4,113.74c5.6,12.2,4.07,23.25-2.77,32.71-5.02,6.95-11.51,13.78-18.89,17.92-29.68,16.64-59.96,32.23-90.03,48.16-1.85.98-3.86,1.65-6.48,2.75-.16-12.76,4.22-23.35,10.74-33.17,8.49-12.78,19.98-22.19,33.52-29.29,24.45-12.82,48.81-25.8,73.91-39.09Z"/>
        <path class="cls-2" d="m199.12,136.2c6.27,21.05,12.49,40.26,17.59,59.77,2.64,10.11-3.37,19.44-13.67,23.59-1.29-4.04-2.58-8.04-3.83-12.05-3.27-10.45-6.75-20.84-9.73-31.37-4.02-14.22-1.74-27.19,9.63-39.94Z"/>
        <path class="cls-2" d="m185.2,184.4c2.4,7.61,4.41,13.88,6.36,20.16,3.66,11.8,7.52,23.54,10.85,35.43,3.38,12.07-1.45,22.37-12.53,27.21-.49-.92-1.17-1.82-1.49-2.84-4.31-13.84-8.91-27.59-12.73-41.56-3.73-13.65-1.54-26.32,9.54-38.4Z"/>
        <path class="cls-2" d="m174.86,312.33c-4.89-16.2-10.21-31.76-14.21-47.65-3.32-13.21,1.58-27.07,10.73-33.99,4.03,12.87,8,25.51,11.95,38.16,1.7,5.46,3.58,10.87,5.01,16.4,3.19,12.32-1.86,22.94-13.48,27.08Z"/>
      </g>
      <g>
        <path class="cls-2" d="m138.6,361.2h3.54l3.36,5.67,3.34-5.67h3.52l-5.33,8.84v5.51h-3.15v-5.59l-5.26-8.76Z"/>
        <path class="cls-2" d="m153.4,365.45c.32-.92.78-1.72,1.39-2.4.6-.68,1.34-1.22,2.22-1.61s1.87-.58,2.96-.58,2.1.19,2.97.58c.87.39,1.61.92,2.21,1.61.6.68,1.06,1.48,1.39,2.4.32.92.48,1.91.48,2.98s-.16,2.02-.48,2.92c-.32.9-.78,1.69-1.39,2.36-.6.67-1.34,1.2-2.21,1.58-.87.38-1.86.57-2.97.57s-2.09-.19-2.96-.57-1.62-.91-2.22-1.58c-.6-.67-1.06-1.46-1.39-2.36-.32-.9-.48-1.88-.48-2.92s.16-2.07.48-2.98Zm2.88,4.74c.14.57.36,1.08.67,1.54s.71.82,1.21,1.09,1.1.41,1.81.41,1.31-.14,1.81-.41c.5-.27.9-.64,1.21-1.09.31-.46.53-.97.67-1.54.14-.57.21-1.16.21-1.76s-.07-1.24-.21-1.83c-.14-.59-.37-1.12-.67-1.58-.31-.46-.71-.83-1.21-1.1-.5-.27-1.1-.41-1.81-.41s-1.31.14-1.81.41-.9.64-1.21,1.1c-.31.46-.53.99-.67,1.58s-.21,1.2-.21,1.83.07,1.19.21,1.76Z"/>
        <path class="cls-2" d="m171.59,372.01c.17.33.4.61.69.81s.63.36,1.02.46c.39.1.79.15,1.21.15.28,0,.58-.02.9-.07.32-.05.62-.14.9-.27.28-.13.52-.32.7-.55.19-.23.28-.53.28-.89,0-.39-.12-.7-.37-.94-.25-.24-.57-.44-.97-.6s-.86-.3-1.37-.42c-.51-.12-1.02-.25-1.55-.4-.54-.13-1.06-.3-1.57-.49-.51-.19-.96-.44-1.37-.75-.4-.31-.73-.69-.97-1.16-.25-.46-.37-1.02-.37-1.68,0-.74.16-1.38.47-1.92.31-.54.73-.99,1.24-1.36.51-.36,1.09-.63,1.73-.8.64-.17,1.29-.26,1.93-.26.75,0,1.47.08,2.16.25.69.17,1.3.44,1.84.81.54.38.96.85,1.28,1.44.31.58.47,1.29.47,2.12h-3.05c-.03-.43-.12-.78-.27-1.06-.15-.28-.36-.5-.61-.66-.25-.16-.55-.27-.87-.34s-.69-.1-1.07-.1c-.25,0-.51.03-.76.08-.25.05-.49.15-.69.28s-.38.3-.51.5c-.13.2-.2.46-.2.76,0,.28.05.51.16.68.11.17.32.34.63.48.31.15.75.3,1.31.44.56.15,1.28.34,2.18.56.27.05.64.15,1.12.29.48.14.95.37,1.42.67s.87.72,1.22,1.24c.34.52.51,1.18.51,1.98,0,.66-.13,1.27-.38,1.83-.25.56-.63,1.05-1.14,1.46s-1.13.73-1.87.95c-.74.23-1.6.34-2.58.34-.79,0-1.56-.1-2.3-.29s-1.4-.5-1.97-.91c-.57-.42-1.02-.94-1.36-1.59-.33-.64-.5-1.41-.48-2.29h3.05c0,.48.09.89.26,1.23Z"/>
        <path class="cls-2" d="m186.36,361.2v5.51h5.81v-5.51h3.15v14.35h-3.15v-6.19h-5.81v6.19h-3.15v-14.35h3.15Z"/>
        <path class="cls-2" d="m207.18,361.2v5.95l5.61-5.95h3.94l-5.61,5.67,6.15,8.68h-3.96l-4.32-6.45-1.81,1.83v4.62h-3.15v-14.35h3.15Z"/>
        <path class="cls-2" d="m225.5,361.2l5.37,14.35h-3.28l-1.09-3.2h-5.37l-1.13,3.2h-3.17l5.43-14.35h3.24Zm.18,8.8l-1.81-5.26h-.04l-1.87,5.26h3.72Z"/>
        <path class="cls-2" d="m241.98,375.55l-2.43-9.77h-.04l-2.39,9.77h-3.19l-3.8-14.35h3.15l2.27,9.77h.04l2.49-9.77h2.95l2.45,9.89h.04l2.35-9.89h3.09l-3.86,14.35h-3.13Z"/>
        <path class="cls-2" d="m257.58,361.2l5.37,14.35h-3.28l-1.09-3.2h-5.37l-1.13,3.2h-3.17l5.43-14.35h3.24Zm.18,8.8l-1.81-5.26h-.04l-1.87,5.26h3.72Z"/>
        <path class="cls-2" d="m280.38,365.03c-.19-.3-.42-.57-.7-.79-.28-.23-.6-.41-.95-.53-.36-.13-.73-.19-1.12-.19-.71,0-1.31.14-1.81.41s-.9.64-1.21,1.1c-.31.46-.53.99-.67,1.58s-.21,1.2-.21,1.83.07,1.19.21,1.76c.14.57.36,1.08.67,1.54s.71.82,1.21,1.09,1.1.41,1.81.41c.96,0,1.72-.29,2.26-.88.54-.59.87-1.37.99-2.33h3.05c-.08.9-.29,1.71-.62,2.43-.33.72-.78,1.34-1.33,1.85-.55.51-1.19.9-1.93,1.17-.74.27-1.55.4-2.43.4-1.1,0-2.09-.19-2.96-.57s-1.62-.91-2.22-1.58c-.6-.67-1.06-1.46-1.39-2.36-.32-.9-.48-1.88-.48-2.92s.16-2.07.48-2.98c.32-.92.78-1.72,1.39-2.4.6-.68,1.34-1.22,2.22-1.61s1.87-.58,2.96-.58c.79,0,1.54.11,2.24.34.7.23,1.33.56,1.89.99.56.44,1.01.97,1.38,1.62.36.64.59,1.38.68,2.21h-3.05c-.05-.36-.17-.69-.36-1Z"/>
        <path class="cls-2" d="m291.01,363.85v-2.65h11.76v2.65h-4.3v11.69h-3.15v-11.69h-4.3Z"/>
        <path class="cls-2" d="m303.85,361.2h3.54l3.36,5.67,3.34-5.67h3.52l-5.33,8.84v5.51h-3.15v-5.59l-5.26-8.76Z"/>
        <path class="cls-2" d="m336.45,361.2v2.65h-6.93v3.32h6.01v2.45h-6.01v5.93h-3.15v-14.35h10.09Z"/>
        <path class="cls-2" d="m347.48,365.03c-.19-.3-.42-.57-.7-.79-.28-.23-.6-.41-.95-.53-.36-.13-.73-.19-1.12-.19-.71,0-1.31.14-1.81.41s-.9.64-1.21,1.1c-.31.46-.53.99-.67,1.58s-.21,1.2-.21,1.83.07,1.19.21,1.76c.14.57.36,1.08.67,1.54s.71.82,1.21,1.09,1.1.41,1.81.41c.96,0,1.72-.29,2.26-.88.54-.59.87-1.37.99-2.33h3.05c-.08.9-.29,1.71-.62,2.43-.33.72-.78,1.34-1.33,1.85-.55.51-1.19.9-1.93,1.17-.74.27-1.55.4-2.43.4-1.1,0-2.09-.19-2.96-.57s-1.62-.91-2.22-1.58c-.6-.67-1.06-1.46-1.39-2.36-.32-.9-.48-1.88-.48-2.92s.16-2.07.48-2.98c.32-.92.78-1.72,1.39-2.4.6-.68,1.34-1.22,2.22-1.61s1.87-.58,2.96-.58c.79,0,1.54.11,2.24.34.7.23,1.33.56,1.89.99.56.44,1.01.97,1.38,1.62.36.64.59,1.38.68,2.21h-3.05c-.05-.36-.17-.69-.36-1Z"/>
        <g>
          <polygon class="cls-1" points="201.25 362.44 201.25 361.2 198.09 361.2 198.09 364.43 201.25 362.44"/>
          <polygon class="cls-1" points="198.1 368.31 198.09 368.17 198.09 375.55 201.25 375.55 201.25 365.79 198.1 368.31"/>
        </g>
        <g>
          <polygon class="cls-1" points="288.94 362.44 288.94 362.6 288.94 361.2 285.79 361.2 285.79 364.43 288.94 362.44"/>
          <polygon class="cls-1" points="285.79 368.31 285.79 368.22 285.79 375.55 288.94 375.55 288.94 365.79 285.79 368.31"/>
        </g>
      </g>
    </g>
  </g>
</svg>